<!-- Generated by IcoMoon.io -->
<svg version="1.1" xmlns="http://www.w3.org/2000/svg" width="1024" height="1024" viewBox="0 0 1024 1024">
<g id="icomoon-ignore">
</g>
<path fill="#fff" d="M1023.229 348.352c-0.234-1.241-0.441-2.482-0.772-3.696-0.207-0.731-0.455-1.42-0.689-2.137-0.345-1.076-0.703-2.151-1.131-3.199-0.303-0.731-0.648-1.434-0.979-2.137-0.469-0.993-0.951-1.972-1.503-2.923-0.386-0.703-0.827-1.365-1.255-2.041-0.593-0.91-1.2-1.806-1.862-2.675-0.483-0.648-0.979-1.269-1.503-1.889-0.689-0.827-1.434-1.613-2.179-2.386-0.579-0.579-1.158-1.158-1.765-1.724-0.8-0.731-1.627-1.42-2.496-2.082-0.662-0.51-1.31-1.034-2-1.503-0.248-0.179-0.469-0.386-0.731-0.552l-467.969-312.007c-14.769-9.86-34.033-9.86-48.802 0l-467.997 311.993c-0.262 0.165-0.469 0.372-0.731 0.552-0.689 0.483-1.338 0.993-2 1.503-0.855 0.676-1.696 1.365-2.496 2.068-0.607 0.552-1.186 1.131-1.751 1.724-0.772 0.772-1.489 1.558-2.193 2.386-0.524 0.621-1.020 1.241-1.503 1.931-0.662 0.869-1.269 1.751-1.862 2.675-0.427 0.676-0.855 1.338-1.255 2.041-0.552 0.951-1.034 1.931-1.489 2.896-0.331 0.703-0.689 1.42-0.979 2.137-0.427 1.048-0.8 2.124-1.145 3.199-0.234 0.717-0.483 1.42-0.676 2.068-0.317 1.213-0.552 2.441-0.772 3.696-0.124 0.634-0.276 1.255-0.359 1.903-0.248 1.903-0.386 3.806-0.386 5.75v312.062c0 1.931 0.138 3.861 0.414 5.75 0.097 0.689 0.276 1.241 0.414 1.903 0.221 1.241 0.414 2.482 0.827 3.723 0.193 0.689 0.414 1.379 0.689 2.137 0.345 1.103 0.689 2.206 1.103 3.213 0.29 0.689 0.689 1.379 0.965 2.068 0.455 0.965 0.965 1.931 1.517 2.937 0.386 0.689 0.827 1.379 1.241 2.013 0.593 0.965 1.241 1.793 1.931 2.62 0.483 0.689 0.965 1.241 1.517 1.903 0.703 0.827 1.379 1.655 2.206 2.386 0.565 0.552 1.103 1.241 1.793 1.655 0.8 0.689 1.655 1.379 2.482 2.096 0.662 0.552 1.379 0.965 1.931 1.503 0.262 0.138 0.414 0.414 0.689 0.538l467.873 312.159c7.391 4.964 15.858 7.446 24.408 7.405s17.017-2.482 24.408-7.405l467.997-311.993c0.262-0.165 0.483-0.359 0.731-0.538 0.689-0.483 1.338-0.993 2-1.503 0.855-0.676 1.696-1.379 2.496-2.096 0.607-0.538 1.186-1.131 1.765-1.71 0.758-0.772 1.489-1.558 2.179-2.386 0.524-0.621 1.020-1.241 1.503-1.903 0.662-0.869 1.269-1.765 1.862-2.675 0.427-0.662 0.855-1.338 1.255-2.013 0.552-0.965 1.034-1.944 1.503-2.937 0.331-0.703 0.676-1.407 0.979-2.124 0.427-1.062 0.786-2.137 1.131-3.213 0.234-0.717 0.483-1.42 0.689-2.137 0.317-1.213 0.538-2.455 0.772-3.696 0.11-0.634 0.276-1.255 0.345-1.903 0.248-1.903 0.386-3.806 0.386-5.75v-312.007c0-1.944-0.152-3.847-0.386-5.75-0.11-0.676-0.317-1.227-0.455-1.903zM511.987 616.094l-155.617-104.085 155.617-104.099 155.631 104.099zM467.998 331.473l-190.768 127.597-153.99-103.010 344.758-229.834zM198.091 511.995l-110.070 73.624v-147.247zM277.23 564.975l190.768 127.583v205.247l-344.758-229.862 153.99-102.996zM555.99 692.53l190.768-127.583 154.004 102.996-344.772 229.834zM825.897 512.022l110.084-73.637v147.261l-110.084-73.651zM746.758 459.070l-190.768-127.583v-205.261l344.772 229.834z"></path>
</svg>
